<svg width="216" height="19" viewBox="0 0 216 19" fill="none" xmlns="http://www.w3.org/2000/svg">
<path d="M6.16827 8.78685C3.7083 8.17916 1.38478 7.60563 1.38478 5.08921C1.38478 2.96799 3.18944 1.65012 6.09438 1.65012C7.60845 1.65651 9.08414 2.12954 10.3223 3.00536L10.4459 3.09592L10.8612 2.4893L10.749 2.40311C9.38165 1.43102 7.74653 0.912112 6.07173 0.918827C2.06436 0.918827 0.6367 3.06066 0.6367 5.0648C0.6367 8.18023 3.33938 8.84053 5.95307 9.47966C8.38985 10.076 10.6913 10.6381 10.6913 13.1264C10.6913 15.2519 8.88821 16.5204 5.86839 16.5204C3.85122 16.5204 1.79954 15.6926 0.762368 14.4605L0.662048 14.3412L0.130249 14.8372L0.217625 14.9456C1.32869 16.3236 3.60852 17.2495 5.89105 17.2495C9.98202 17.2495 11.4399 15.1191 11.4399 13.1258C11.4393 10.089 8.75715 9.42707 6.16827 8.78685Z" fill="white"/>
<path d="M114.712 15.8986L109.51 0.990936H108.848L103.67 15.8552L98.5945 0.990936H97.7855L103.31 17.1861H103.973L109.178 2.22799L114.382 17.1861H115.045L120.57 0.990936H119.782L114.712 15.8986Z" fill="white"/>
<path d="M210.599 8.78685C208.139 8.17916 205.816 7.60563 205.816 5.08921C205.816 2.96798 207.62 1.65011 210.525 1.65011C212.039 1.65655 213.515 2.12957 214.753 3.00536L214.876 3.09592L215.291 2.4893L215.179 2.40311C213.812 1.43112 212.177 0.912223 210.502 0.918824C206.494 0.918824 205.067 3.06066 205.067 5.06479C205.067 8.18023 207.769 8.84053 210.383 9.47966C212.82 10.076 215.121 10.6381 215.121 13.1263C215.121 15.2519 213.318 16.5204 210.299 16.5204C208.282 16.5204 206.23 15.6926 205.193 14.4605L205.092 14.3412L204.56 14.8366L204.647 14.9451C205.759 16.3231 208.038 17.249 210.321 17.249C214.412 17.249 215.87 15.1186 215.87 13.1253C215.87 10.089 213.19 9.42707 210.599 8.78685Z" fill="white"/>
<path d="M22.7873 0.991272H22.0387V17.1864H22.7873V9.32656H30.8306V8.59692H22.7873V0.991272Z" fill="white"/>
<path d="M34.7624 0.98877H34.0138V17.1839H34.7624V0.98877Z" fill="white"/>
<path d="M170.157 6.36096C170.157 2.99724 167.778 0.98822 163.792 0.98822H162.221V1.71789H163.839C167.43 1.71789 169.407 3.36696 169.407 6.36043C169.407 9.35389 167.43 11.0029 163.839 11.0029H162.221V11.7326H163.792C164.391 11.7387 164.99 11.6906 165.58 11.5889L169.591 17.1829H170.522L166.368 11.3992C167.488 11.1425 168.483 10.4963 169.176 9.57457C169.869 8.65285 170.217 7.51478 170.157 6.36096Z" fill="white"/>
<path d="M159.04 0.989258H158.291V17.1844H159.04V0.989258Z" fill="white"/>
<path d="M85.6308 0.990936L75.1318 11.8329V0.990936H74.3832V17.1861H75.1318V12.8737L78.9105 8.96683L78.9153 8.97225L86.655 0.990936H85.6308Z" fill="white"/>
<path d="M80.1272 10.3476L86.1021 17.1336L86.1463 17.1839H87.1522L80.6649 9.8071L80.1272 10.3476Z" fill="white"/>
<path d="M192.376 0.990936L181.877 11.8329V0.990936H181.128V17.1861H181.877V12.8737L185.655 8.96683L185.66 8.97225L193.4 0.990936H192.376Z" fill="white"/>
<path d="M186.872 10.3476L192.847 17.1336L192.891 17.1839H193.897L187.409 9.8071L186.872 10.3476Z" fill="white"/>
<path d="M139.388 0.920502C134.679 0.920502 131.128 4.43112 131.128 9.08611C131.128 13.7411 134.679 17.2517 139.388 17.2517H139.536V16.5221H139.388C137.929 16.4998 136.51 16.0448 135.308 15.2142C134.106 14.3836 133.175 13.2145 132.632 11.8537C132.089 10.4929 131.959 9.00118 132.257 7.56603C132.555 6.13088 133.268 4.81631 134.307 3.78749C135.347 2.75868 136.665 2.06152 138.097 1.78364C139.53 1.50576 141.012 1.65955 142.357 2.22569C143.703 2.79182 144.852 3.74507 145.66 4.96559C146.468 6.18611 146.899 7.61946 146.899 9.08555V9.23464H147.648V9.08555C147.648 4.4311 144.097 0.920502 139.388 0.920502Z" fill="white"/>
<path d="M56.4249 7.79533C56.4222 7.80469 56.4205 7.81435 56.4201 7.82409C56.419 7.84756 56.4242 7.87087 56.4352 7.89162C56.4462 7.91236 56.4625 7.92977 56.4824 7.94201C56.5024 7.95425 56.5253 7.96087 56.5486 7.9612C56.572 7.96153 56.595 7.95557 56.6153 7.94389L59.0106 6.57128L58.8816 6.34308L56.4864 7.71566C56.4714 7.72421 56.4583 7.73567 56.4477 7.74934C56.4372 7.76302 56.4294 7.77863 56.4249 7.79533Z" fill="white"/>
<path d="M50.4306 5.28112C50.2172 5.3487 50.036 5.49303 49.9219 5.6865C49.8078 5.87997 49.7687 6.10894 49.8121 6.32958C49.8556 6.55022 49.9784 6.74701 50.1572 6.88223C50.3361 7.01746 50.5582 7.08164 50.7812 7.06246C51.0213 7.04153 51.2435 6.92643 51.3998 6.74208C51.529 6.59089 51.6054 6.40135 51.6175 6.20243C51.6295 6.0035 51.5765 5.8061 51.4665 5.64028C51.3565 5.47446 51.1956 5.34933 51.0083 5.284C50.821 5.21866 50.6175 5.2167 50.429 5.27841L50.4306 5.28112ZM51.3901 6.09427C51.4029 6.25024 51.3626 6.40596 51.2759 6.53594C51.1892 6.66593 51.0612 6.7625 50.9128 6.80984C50.8639 6.82533 50.8134 6.83532 50.7623 6.83965C50.6269 6.85098 50.4911 6.82166 50.3722 6.75544C50.2534 6.68923 50.1567 6.58909 50.0945 6.46765C50.0322 6.34622 50.0072 6.20894 50.0226 6.07322C50.038 5.9375 50.0931 5.80942 50.1809 5.70516C50.2687 5.6009 50.3853 5.52517 50.5159 5.48752C50.6466 5.44987 50.7854 5.45199 50.9148 5.49364C51.0443 5.53529 51.1585 5.6146 51.2431 5.72151C51.3277 5.82842 51.3789 5.95813 51.3901 6.09427Z" fill="white"/>
<path d="M58.7819 5.83078C58.7637 5.89677 58.7528 5.96458 58.7495 6.03298C58.7397 6.25743 58.8125 6.47765 58.954 6.65157C59.0955 6.8255 59.2958 6.94093 59.5166 6.97586C59.7374 7.01079 59.9633 6.96279 60.1511 6.84096C60.3389 6.71914 60.4755 6.53203 60.5348 6.31541C60.598 6.08153 60.567 5.83208 60.4485 5.62101C60.3894 5.51666 60.3104 5.42502 60.2161 5.35135C60.1218 5.27768 60.0139 5.22341 59.8987 5.19164C59.7835 5.15988 59.6632 5.15125 59.5447 5.16623C59.4262 5.18121 59.3118 5.21949 59.208 5.27893C59.1042 5.33808 59.0131 5.41731 58.94 5.51202C58.8669 5.60674 58.8131 5.71508 58.7819 5.83078ZM59.8406 5.4074C59.9909 5.44883 60.1227 5.54041 60.2144 5.6671C60.306 5.7938 60.3521 5.94807 60.3449 6.10455C60.3426 6.15587 60.3346 6.20679 60.3212 6.25635C60.2851 6.38789 60.2111 6.50571 60.1084 6.59496C60.0057 6.68421 59.879 6.74088 59.7443 6.75778C59.6096 6.77468 59.4729 6.75106 59.3516 6.68992C59.2302 6.62878 59.1296 6.53286 59.0625 6.41427C58.9954 6.29569 58.9647 6.15974 58.9744 6.02365C58.9841 5.88756 59.0338 5.75742 59.117 5.64967C59.2003 5.54191 59.3135 5.46137 59.4423 5.41826C59.5711 5.37514 59.7097 5.37136 59.8406 5.4074Z" fill="white"/>
<path d="M54.3673 6.47751C53.854 6.47751 53.3522 6.6305 52.9254 6.91714C52.4986 7.20377 52.166 7.61117 51.9695 8.08782C51.7731 8.56448 51.7217 9.08899 51.8218 9.595C51.922 10.101 52.1692 10.5658 52.5321 10.9306C52.8951 11.2954 53.3575 11.5439 53.861 11.6445C54.3644 11.7452 54.8863 11.6935 55.3605 11.4961C55.8348 11.2986 56.2401 10.9643 56.5253 10.5353C56.8105 10.1064 56.9627 9.60202 56.9627 9.08609C56.9618 8.39452 56.6881 7.7315 56.2016 7.24248C55.715 6.75346 55.0554 6.47837 54.3673 6.47751ZM54.3673 11.3212C53.9276 11.3212 53.4978 11.1901 53.1322 10.9446C52.7666 10.699 52.4816 10.3501 52.3134 9.94175C52.1451 9.53345 52.1011 9.08415 52.1869 8.6507C52.2726 8.21724 52.4844 7.81909 52.7953 7.50658C53.1062 7.19408 53.5023 6.98125 53.9336 6.89503C54.3649 6.80881 54.8119 6.85306 55.2181 7.02219C55.6243 7.19131 55.9716 7.47773 56.2158 7.84519C56.4601 8.21266 56.5905 8.64467 56.5905 9.08662C56.5898 9.67903 56.3554 10.247 55.9386 10.6659C55.5218 11.0848 54.9567 11.3204 54.3673 11.3212Z" fill="white"/>
<path d="M63.3615 8.94243C63.3459 8.92635 63.3273 8.91356 63.3067 8.90481C63.2862 8.89606 63.2641 8.89153 63.2418 8.89148L61.7283 8.89528L61.7219 8.75215C61.7029 8.31412 61.6447 7.87871 61.5482 7.45113L61.5169 7.3118L62.9732 6.9139C62.9947 6.90796 63.0148 6.89782 63.0324 6.88405C63.0499 6.87029 63.0647 6.85316 63.0756 6.83366C63.0971 6.79422 63.1023 6.74792 63.0902 6.70466L63.0465 6.55017C63.0131 6.42928 62.9716 6.2791 62.9182 6.12461L62.6738 5.49794C62.649 5.43397 62.6231 5.36784 62.5886 5.29465L62.1841 4.50864L61.7025 3.7654C61.6663 3.71119 61.6226 3.65969 61.5811 3.60874L61.1469 3.06935C61.0531 2.96093 60.9506 2.85738 60.86 2.76631L60.8465 2.75221L60.7386 2.64382C60.7231 2.62778 60.7046 2.61501 60.6842 2.60626C60.6637 2.59752 60.6417 2.59293 60.6194 2.59283C60.5748 2.59284 60.532 2.61057 60.5003 2.64216L59.4339 3.71987L59.3293 3.62336C59.0071 3.32746 58.6592 3.06097 58.29 2.82702L58.1697 2.75115L58.9205 1.43168C58.9317 1.41222 58.9389 1.39069 58.9417 1.36838C58.9445 1.34607 58.9428 1.32344 58.9367 1.30181C58.9306 1.28017 58.9202 1.25996 58.9063 1.24242C58.8923 1.22487 58.8749 1.21035 58.8552 1.19967L58.3288 0.914525C58.2032 0.854895 58.0672 0.797434 57.948 0.746476L57.5166 0.56324C57.4718 0.54752 57.4195 0.530163 57.3661 0.512816L57.3553 0.509011L56.6606 0.292192L56.0312 0.155575C55.953 0.139312 55.8829 0.124142 55.8003 0.110047L55.3149 0.0520459C55.1893 0.0379513 55.0582 0.0227533 54.9137 0.0119113L54.3436 0L54.3112 0.0043344C54.3016 0.005893 54.2922 0.00842367 54.2832 0.0119113C54.2732 0.0152842 54.2636 0.0196353 54.2546 0.0249145L54.2427 0.0314327L54.1996 0.0759016C54.1808 0.103309 54.1708 0.135853 54.171 0.169141L54.1807 3.3084H54.5156L54.5065 0.340432L54.8964 0.34748C55.0339 0.358322 55.1661 0.373512 55.2826 0.386523L55.4741 0.408195L55.7491 0.44234C55.8306 0.456435 55.9039 0.472168 55.9783 0.488431L56.5716 0.616908L57.248 0.829392L57.3898 0.876012L57.8213 1.05763C57.9513 1.11184 58.0721 1.16605 58.1783 1.21429L58.5462 1.41325L57.797 2.72836C57.786 2.74759 57.7788 2.76883 57.776 2.79086C57.7731 2.81288 57.7747 2.83524 57.7805 2.85667C57.7863 2.87809 57.7963 2.89814 57.8099 2.91566C57.8235 2.93318 57.8404 2.94785 57.8596 2.95877C58.3918 3.26541 58.8814 3.64123 59.3158 4.07655C59.348 4.10654 59.3903 4.12321 59.4342 4.12321C59.4781 4.12321 59.5204 4.10654 59.5526 4.07655L60.6173 2.99997L60.7225 3.10839C60.7807 3.16857 60.8368 3.22765 60.8843 3.28511L61.3157 3.82069C61.3535 3.86677 61.3913 3.91393 61.4198 3.9535L61.8853 4.67126L62.2828 5.44321C62.3103 5.50176 62.3313 5.55648 62.3545 5.61665L62.5983 6.24061C62.6242 6.31488 62.6485 6.39295 62.6754 6.48727L62.717 6.63256L61.2607 7.0299C61.2395 7.03568 61.2196 7.04564 61.2022 7.05915C61.1848 7.07266 61.1702 7.0895 61.1593 7.10868C61.1484 7.12787 61.1413 7.14902 61.1386 7.17095C61.1358 7.19288 61.1374 7.21514 61.1432 7.23646C61.3044 7.83266 61.3863 8.44766 61.3869 9.06548C61.3871 9.08749 61.3915 9.10926 61.4001 9.12954C61.4086 9.14981 61.421 9.16821 61.4366 9.18367C61.451 9.199 61.4684 9.21126 61.4877 9.21973C61.507 9.2282 61.5277 9.23272 61.5488 9.233L63.0632 9.2292L63.0552 9.62439C63.0438 9.78702 63.0244 9.94966 63.0071 10.0884L62.9624 10.4771C62.9521 10.5394 62.9403 10.5942 62.9289 10.6484L62.7887 11.3065L62.532 12.1262L62.3551 12.549C62.3011 12.6759 62.2472 12.8076 62.1933 12.9209L61.9953 13.2906L60.6863 12.5376C60.6673 12.5266 60.6463 12.5195 60.6246 12.5168C60.6028 12.514 60.5807 12.5155 60.5596 12.5214C60.5382 12.5271 60.5182 12.5371 60.5007 12.5507C60.4833 12.5643 60.4686 12.5812 60.4576 12.6005C60.1531 13.1368 59.7793 13.6302 59.346 14.068C59.315 14.0998 59.2976 14.1426 59.2975 14.1872C59.2975 14.2313 59.315 14.2737 59.346 14.3049L60.4167 15.3744L60.3088 15.4828C60.2397 15.5501 60.1826 15.6043 60.134 15.6455L59.6017 16.0792C59.551 16.1204 59.5068 16.1561 59.4631 16.1876L58.7544 16.6527L57.9815 17.0544C57.9275 17.082 57.8698 17.1043 57.8164 17.1254L57.1935 17.3715C57.1185 17.3981 57.0435 17.4214 56.9486 17.4485L56.8046 17.4908L56.4093 16.0271C56.4033 16.0056 56.3932 15.9855 56.3795 15.9679C56.3658 15.9503 56.3488 15.9356 56.3295 15.9247C56.3105 15.9138 56.2895 15.9069 56.2679 15.9043C56.2462 15.9017 56.2242 15.9035 56.2032 15.9095C55.6105 16.0711 54.9992 16.1535 54.3851 16.1545C54.3408 16.1547 54.2984 16.1724 54.267 16.2038C54.2513 16.2194 54.2389 16.238 54.2304 16.2585C54.222 16.279 54.2177 16.3009 54.2179 16.3231L54.2217 17.841L53.828 17.8323C53.6742 17.8214 53.5254 17.8036 53.3965 17.7878L52.986 17.7401C52.9321 17.7309 52.8922 17.7217 52.8426 17.7114L52.157 17.5645L51.485 17.3531L51.3394 17.3059L50.943 17.1373C50.8081 17.0831 50.6684 17.0213 50.5514 16.9671L50.1836 16.7666L50.9322 15.4509C50.9433 15.4317 50.9506 15.4105 50.9535 15.3884C50.9564 15.3664 50.9549 15.3441 50.9491 15.3226C50.9434 15.3012 50.9334 15.2811 50.9199 15.2636C50.9063 15.246 50.8894 15.2314 50.8702 15.2205C50.3365 14.9143 49.8454 14.5387 49.4096 14.1032C49.3941 14.0873 49.3755 14.0748 49.355 14.0664C49.3345 14.058 49.3125 14.0539 49.2904 14.0544C49.2685 14.0544 49.2469 14.0587 49.2267 14.0672C49.2065 14.0757 49.1882 14.0881 49.1728 14.1037L48.1087 15.1793L48.0041 15.0708C47.9329 14.9971 47.8821 14.9429 47.8422 14.8947L47.4776 14.4447C47.4544 14.4138 47.4329 14.3867 47.4113 14.3596L47.4016 14.3472C47.3644 14.3011 47.332 14.2599 47.3077 14.2252L46.8428 13.5091L46.4448 12.736C46.4254 12.6954 46.4097 12.6569 46.3946 12.619L46.3741 12.5647C46.3612 12.5317 46.3488 12.5002 46.3385 12.4764L46.1293 11.9343C46.0974 11.8438 46.0721 11.7586 46.0516 11.6871L46.0101 11.5413L47.4663 11.1433C47.4876 11.1376 47.5075 11.1278 47.5249 11.1143C47.5423 11.1008 47.5568 11.084 47.5677 11.0648C47.5788 11.0454 47.5859 11.024 47.5886 11.0019C47.5914 10.9797 47.5898 10.9572 47.5839 10.9357C47.4224 10.3405 47.3401 9.72639 47.339 9.10942C47.3387 9.06424 47.3207 9.02098 47.2889 8.98905C47.2577 8.95808 47.2157 8.94075 47.1718 8.94081L45.6616 8.94461L45.6692 8.55323C45.6794 8.41987 45.6935 8.30005 45.7102 8.15747L45.7641 7.69832C45.7755 7.62948 45.7884 7.56768 45.8008 7.50751L45.9373 6.8689L46.1352 6.2325C46.1568 6.16312 46.1778 6.09588 46.1962 6.04384L46.4119 5.52342C46.454 5.42475 46.4928 5.33369 46.5289 5.25617L46.729 4.88593L48.0386 5.63945C48.0577 5.65038 48.0788 5.6574 48.1007 5.66013C48.1226 5.66286 48.1447 5.66122 48.166 5.65533C48.1872 5.64944 48.2071 5.6394 48.2245 5.62579C48.2418 5.61218 48.2564 5.59528 48.2673 5.57602C48.5711 5.03939 48.9447 4.54587 49.3783 4.10855C49.3939 4.09279 49.4062 4.07409 49.4145 4.05352C49.4228 4.03296 49.427 4.01094 49.4269 3.98874C49.4264 3.94416 49.4086 3.90154 49.3772 3.87002L48.3072 2.80102L48.415 2.69259C48.4851 2.6232 48.5407 2.57116 48.5898 2.52725L49.0385 2.16187C49.0698 2.13802 49.0973 2.11634 49.127 2.09249L49.1388 2.08273C49.1852 2.04532 49.2246 2.01335 49.2597 1.98896L49.97 1.52273L50.738 1.12321C50.7871 1.0999 50.8335 1.08094 50.8788 1.06305L50.8982 1.05544C50.9414 1.0381 50.9721 1.02617 50.9947 1.01587L51.5298 0.805007C51.6145 0.775192 51.6981 0.750782 51.7763 0.728014L51.9208 0.686291L52.3135 2.13911L52.6306 2.02691L52.1991 0.435855C52.1934 0.414281 52.1834 0.394062 52.1698 0.376398C52.1563 0.358734 52.1393 0.343957 52.12 0.332955C52.1006 0.321952 52.0793 0.314935 52.0572 0.312308C52.0352 0.309682 52.0128 0.31151 51.9915 0.317669L51.8205 0.365909C51.6894 0.40223 51.5562 0.439087 51.4133 0.48896L50.8675 0.705812C50.8421 0.717196 50.8135 0.729098 50.7795 0.742109C50.7191 0.765961 50.6571 0.790911 50.5892 0.823437L49.7947 1.23759L49.0698 1.71301C49.0218 1.74717 48.9733 1.78619 48.9231 1.8263L48.8972 1.84745C48.8773 1.86371 48.8557 1.88053 48.8309 1.90168L48.3735 2.27354C48.2705 2.36407 48.1696 2.46598 48.0801 2.55597L48.065 2.57116L47.9528 2.68283C47.9369 2.69852 47.9242 2.71726 47.9155 2.73792C47.9068 2.75858 47.9022 2.78073 47.9021 2.80317C47.902 2.82532 47.9063 2.84731 47.9147 2.86778C47.9232 2.88826 47.9356 2.90683 47.9512 2.92244L49.0229 3.99307L48.9263 4.09879C48.6318 4.42285 48.3669 4.77284 48.1346 5.1445L48.0591 5.2654L46.7468 4.51026C46.7274 4.49909 46.706 4.49193 46.6838 4.48921C46.6616 4.4865 46.639 4.48828 46.6175 4.49444C46.596 4.5006 46.576 4.51104 46.5585 4.52511C46.5411 4.53919 46.5266 4.55663 46.516 4.5764L46.2307 5.10546C46.1767 5.21388 46.1282 5.33696 46.077 5.45731L45.8812 5.9246C45.8569 5.9929 45.8332 6.06931 45.8089 6.14737L45.611 6.78436L45.4696 7.44084C45.4562 7.50535 45.4432 7.57038 45.4292 7.65061L45.3753 8.12551C45.3585 8.26591 45.344 8.39222 45.3327 8.53804L45.3219 9.11266C45.3214 9.13512 45.3255 9.15744 45.3337 9.17831C45.342 9.19917 45.3543 9.21815 45.37 9.23416C45.3857 9.25017 45.4044 9.26287 45.425 9.27151C45.4456 9.28016 45.4678 9.28459 45.4901 9.28452L47.0003 9.28071L47.0068 9.42328C47.0263 9.86133 47.0848 10.2967 47.1815 10.7243L47.2128 10.8636L45.7566 11.2621C45.7351 11.2679 45.7149 11.2779 45.6973 11.2917C45.6797 11.3055 45.665 11.3227 45.6541 11.3422C45.6432 11.3617 45.6363 11.3833 45.6338 11.4056C45.6313 11.4278 45.6332 11.4504 45.6395 11.4719L45.6859 11.6345C45.7183 11.7505 45.7577 11.8952 45.8116 12.0492L46.0273 12.6C46.0376 12.6238 46.05 12.6542 46.0667 12.6981C46.0921 12.7621 46.1131 12.8157 46.1433 12.8792L46.5564 13.6793L47.0294 14.4073C47.0629 14.455 47.1017 14.5044 47.1405 14.5532L47.1594 14.577C47.1799 14.603 47.1961 14.6231 47.2134 14.6475L47.585 15.1061C47.6783 15.2145 47.7829 15.3191 47.8751 15.4124L47.9889 15.5284C48.0205 15.5618 48.0639 15.5813 48.1098 15.5826C48.1544 15.5817 48.1971 15.5637 48.229 15.5322L49.2931 14.4561L49.3977 14.5521C49.7204 14.8481 50.0688 15.1146 50.4387 15.3484L50.559 15.4243L49.8076 16.7438C49.7967 16.7632 49.7896 16.7847 49.787 16.8069C49.7843 16.8291 49.7861 16.8517 49.7922 16.8732C49.7983 16.8947 49.8085 16.9148 49.8224 16.9324C49.8362 16.9499 49.8534 16.9644 49.8729 16.9752L50.4004 17.2626C50.5347 17.3254 50.6841 17.3883 50.8162 17.4442L51.2153 17.6133C51.2612 17.6301 51.3151 17.6469 51.3696 17.6642L51.3788 17.6675L52.0718 17.8843L52.7422 18.0291C52.8102 18.0432 52.8641 18.0546 52.9348 18.067L53.3587 18.1169C53.4952 18.1332 53.65 18.1511 53.8145 18.163L54.3883 18.1755C54.4107 18.1763 54.4329 18.1725 54.4537 18.1643C54.4745 18.1561 54.4934 18.1437 54.5092 18.1278C54.5252 18.1119 54.5379 18.093 54.5466 18.0722C54.5554 18.0513 54.5598 18.0289 54.5599 18.0063L54.5555 16.4885L54.6974 16.4825C55.1332 16.4633 55.5664 16.4049 55.9918 16.3079L56.1304 16.2765L56.5263 17.7401C56.5318 17.7619 56.5416 17.7822 56.5553 17.8C56.5689 17.8177 56.586 17.8324 56.6056 17.8431C56.6248 17.8542 56.646 17.8612 56.6679 17.8639C56.6899 17.8666 56.7122 17.8649 56.7334 17.8589L56.8915 17.8139C57.0279 17.7754 57.1649 17.7369 57.3116 17.6854L57.927 17.4425C57.9993 17.4143 58.0651 17.3883 58.1336 17.3542L58.9307 16.9384L59.6513 16.4662C59.7085 16.4272 59.7662 16.3806 59.8218 16.3356L60.3525 15.9019C60.4549 15.8114 60.559 15.7078 60.6502 15.6167L60.7726 15.4958C60.7892 15.4803 60.8024 15.4616 60.8117 15.4409C60.8209 15.4201 60.826 15.3977 60.8266 15.375C60.8267 15.3527 60.8225 15.3307 60.814 15.3101C60.8056 15.2895 60.7932 15.2708 60.7775 15.2552L59.7058 14.1845L59.8012 14.0794C60.0956 13.755 60.3606 13.4049 60.593 13.0331L60.6685 12.9122L61.9818 13.6674C62.0012 13.6784 62.0226 13.6855 62.0447 13.6882C62.0669 13.6909 62.0893 13.6892 62.1108 13.6831C62.1322 13.677 62.1523 13.6666 62.1697 13.6525C62.1871 13.6384 62.2016 13.621 62.2121 13.6012L62.4958 13.0727C62.5498 12.9529 62.6086 12.8201 62.6625 12.6932L62.848 12.2498C62.8621 12.2075 62.8788 12.156 62.902 12.091L63.1177 11.3927L63.2601 10.727C63.2731 10.6663 63.286 10.605 63.2989 10.5264L63.3459 10.1215C63.362 9.9865 63.382 9.81954 63.3949 9.6412L63.4068 9.06495C63.4078 9.04252 63.4044 9.02009 63.3966 8.99904C63.3888 8.97799 63.3769 8.95874 63.3615 8.94243Z" fill="white"/>
<path d="M54.5243 5.58529L54.1893 5.5863L54.1926 6.66616L54.5275 6.66515L54.5243 5.58529Z" fill="white"/>
<path d="M54.1893 5.58523H54.5243L54.5172 3.30841H54.1823L54.1893 5.58523Z" fill="white"/>
<path d="M54.1893 17.9543H54.5243L54.5172 13.7145H54.1823L54.1893 17.9543Z" fill="white"/>
<path d="M54.5205 13.5817C53.3726 13.6614 52.239 13.2878 51.361 12.5403C50.5675 11.8575 50.0375 10.9167 49.863 9.88162C49.6886 8.84653 49.8809 7.78271 50.4063 6.8754L50.1614 6.77673C49.6189 7.73673 49.4251 8.8564 49.6132 9.94415C49.8013 11.0319 50.3597 12.0201 51.1927 12.7398C52.1163 13.5282 53.3093 13.9238 54.5183 13.8424L54.5205 13.5817Z" fill="white"/>
</svg>
